<?xml version="1.0" encoding="UTF-8" standalone="no"?>
<!-- Created with Inkscape (http://www.inkscape.org/) -->

<svg
   xmlns:dc="http://purl.org/dc/elements/1.1/"
   xmlns:cc="http://creativecommons.org/ns#"
   xmlns:rdf="http://www.w3.org/1999/02/22-rdf-syntax-ns#"
   xmlns:svg="http://www.w3.org/2000/svg"
   xmlns="http://www.w3.org/2000/svg"
   xmlns:sodipodi="http://sodipodi.sourceforge.net/DTD/sodipodi-0.dtd"
   xmlns:inkscape="http://www.inkscape.org/namespaces/inkscape"
   version="1.1"
   width="600"
   height="400"
   id="svg2"
   inkscape:version="0.48.2 r9819"
   sodipodi:docname="logo.svg">
  <sodipodi:namedview
     pagecolor="#ffffff"
     bordercolor="#666666"
     borderopacity="1"
     objecttolerance="10"
     gridtolerance="10"
     guidetolerance="10"
     inkscape:pageopacity="0"
     inkscape:pageshadow="2"
     inkscape:window-width="1366"
     inkscape:window-height="721"
     id="namedview9"
     showgrid="false"
     inkscape:zoom="0.98"
     inkscape:cx="152.74575"
     inkscape:cy="202.57841"
     inkscape:window-x="-4"
     inkscape:window-y="-4"
     inkscape:window-maximized="1"
     inkscape:current-layer="svg2" />
  <defs
     id="defs4" />
  <metadata
     id="metadata7">
    <rdf:RDF>
      <cc:Work
         rdf:about="">
        <dc:format>image/svg+xml</dc:format>
        <dc:type
           rdf:resource="http://purl.org/dc/dcmitype/StillImage" />
        <dc:title />
      </cc:Work>
    </rdf:RDF>
  </metadata>
  <g
     transform="translate(-20.408163,-910.52545)"
     id="layer1">
    <path
       d="m 30.747523,966.55515 c -4.290352,-17.16141 12.871056,-27.17223 20.736701,-30.03247 7.865645,-2.86023 36.188242,-17.68986 42.903519,-9.29576 5.720467,7.15059 12.155997,40.75834 15.016227,46.47881 2.86024,5.72047 7.86565,0.71506 6.43553,-3.57529 -1.43012,-4.29035 -10.72588,-33.60776 -7.86565,-40.75835 2.26899,-5.67249 26.45719,-5.00541 32.89271,-4.29035 6.43553,0.71506 19.30659,77.94146 17.16141,82.94686 -2.14518,5.0054 -25.74211,7.8656 -30.03247,6.4355 -4.29035,-1.4301 -5.72047,-18.59155 -7.86565,-22.16684 -2.14517,-3.5753 -4.43553,-4.29035 -5.15058,2.14517 -0.71506,6.43557 5.00541,17.87647 5.00541,22.16687 0,4.2903 -44.188462,25.027 -52.769166,24.312 -8.580704,-0.7151 -36.467991,-74.36615 -36.467991,-74.36615 z"
       id="path2985"
       style="color:#000000;fill:#000000;fill-opacity:1;fill-rule:nonzero;stroke:none;stroke-width:1px;marker:none;visibility:visible;display:inline;overflow:visible;enable-background:accumulate"
       inkscape:connector-curvature="0" />
    <path
       d="m 154.45267,942.24315 c 2.86024,-7.86565 11.44094,-9.29577 17.16141,-7.86565 5.72047,1.43012 8.5807,35.75293 10.72588,40.04329 2.14518,4.29035 6.43553,0.71505 5.72047,-4.29036 -0.71506,-5.00541 -7.15059,-32.17764 -6.43553,-35.75293 0.71506,-3.57529 17.16141,-7.86564 20.7367,-5.72047 3.5753,2.14518 11.44094,54.34446 10.01082,58.63481 -1.43011,4.29035 -39.32822,12.87106 -44.33363,12.87106 -5.00541,0 -12.87106,-52.19928 -13.58612,-57.91975 z"
       id="path2987"
       style="color:#000000;fill:#000000;fill-opacity:1;fill-rule:nonzero;stroke:none;stroke-width:1px;marker:none;visibility:visible;display:inline;overflow:visible;enable-background:accumulate"
       inkscape:connector-curvature="0" />
    <path
       d="m 212.37242,927.94197 c -2.14517,7.15059 5.00541,55.77458 7.15059,57.2047 2.14518,1.43011 37.89811,-1.43012 40.75834,-7.86565 2.86024,-6.43553 4.29036,-17.87647 -4.29035,-21.45176 -8.5807,-3.57529 -24.31199,0.71506 -27.17223,0.71506 -2.86023,0 -3.57529,-5.00541 0.71506,-5.72047 4.29035,-0.71506 11.44094,0 14.30118,-2.14518 2.86023,-2.14517 -2.86024,-14.30117 0,-15.73129 2.86023,-1.43011 7.86564,0.71506 9.29576,-1.43011 1.43011,-2.14518 0.71506,-15.01624 -5.00541,-15.01624 -5.72047,0 -31.46258,0.71506 -35.75294,11.44094 z"
       id="path2989"
       style="color:#000000;fill:#000000;fill-opacity:1;fill-rule:nonzero;stroke:none;stroke-width:1px;marker:none;visibility:visible;display:inline;overflow:visible;enable-background:accumulate"
       inkscape:connector-curvature="0" />
  </g>
  <path
     style="color:#000000;fill:#000000;fill-opacity:1;fill-rule:nonzero;stroke:none;stroke-width:1px;marker:none;visibility:visible;display:inline;overflow:visible;enable-background:accumulate"
     d="m 518.36735,319.38776 c 0,0 -7.14286,4.08163 -7.14286,11.22448 0,7.14286 -6.12245,23.46939 -4.08163,34.69388 2.04081,11.22449 17.34694,1.02041 17.34694,1.02041 0,0 5.10204,2.04082 10.20408,-1.02041 5.10204,-3.06122 6.12245,26.53061 6.12245,26.53061 l 6.12245,4.08164 -4.08164,11.22449 66.32653,-1.02041 L 606.12245,250 c 0,0 -4.08163,-24.4898 -34.69388,-27.55102 -30.61224,-3.06122 -59.18367,13.26531 -73.46939,13.26531 -14.28571,0 3.06123,11.22449 13.26531,10.20408 10.20408,-1.02041 -5.10204,12.2449 -12.2449,21.42857 -7.14286,9.18367 -6.12245,27.55102 -6.12245,27.55102 0,0 1.02041,-8.16327 6.12245,-12.2449 5.10204,-4.08163 10.20408,-3.06122 10.20408,-3.06122 0,0 4.08164,33.67347 9.18368,39.79592 z"
     id="path2988"
     inkscape:connector-curvature="0" />
</svg>
